0
SECTION
2
HEADER
9
$INSUNITS
70
4
9
$ACADVER
1
AC1014
9
$HANDSEED
5
FFFF
0
ENDSEC
0
SECTION
2
TABLES
0
TABLE
2
VPORT
5
8
100
AcDbSymbolTable
0
ENDTAB
0
TABLE
2
LTYPE
5
5
100
AcDbSymbolTable
70
2
0
LTYPE
5
14
100
AcDbSymbolTableRecord
100
AcDbLinetypeTableRecord
2
BYBLOCK
70
0
0
LTYPE
5
15
100
AcDbSymbolTableRecord
100
AcDbLinetypeTableRecord
2
BYLAYER
70
0
0
ENDTAB
0
TABLE
2
LAYER
5
2
100
AcDbSymbolTable
70
3
0
LAYER
5
50
100
AcDbSymbolTableRecord
100
AcDbLayerTableRecord
2
0
70
0
6
CONTINUOUS
0
LAYER
5
51
100
AcDbSymbolTableRecord
100
AcDbLayerTableRecord
2
CUTOUTS
70
0
62
1
6
CONTINUOUS
0
LAYER
5
52
100
AcDbSymbolTableRecord
100
AcDbLayerTableRecord
2
PERIMETER
70
0
62
5
6
CONTINUOUS
0
ENDTAB
0
TABLE
2
STYLE
5
3
100
AcDbSymbolTable
70
1
0
STYLE
5
11
100
AcDbSymbolTableRecord
100
AcDbTextStyleTableRecord
2
STANDARD
70
0
0
ENDTAB
0
TABLE
2
VIEW
5
6
100
AcDbSymbolTable
0
ENDTAB
0
TABLE
2
UCS
5
7
100
AcDbSymbolTable
0
ENDTAB
0
TABLE
2
APPID
5
9
100
AcDbSymbolTable
70
1
0
APPID
5
12
100
AcDbSymbolTableRecord
100
AcDbRegAppTableRecord
2
ACAD
70
0
0
ENDTAB
0
TABLE
2
DIMSTYLE
5
A
100
AcDbSymbolTable
0
ENDTAB
0
TABLE
2
BLOCK_RECORD
5
1
100
AcDbSymbolTable
70
2
0
BLOCK_RECORD
5
1F
100
AcDbSymbolTableRecord
100
AcDbBlockTableRecord
2
*MODEL_SPACE
0
BLOCK_RECORD
5
1B
100
AcDbSymbolTableRecord
100
AcDbBlockTableRecord
2
*PAPER_SPACE
0
ENDTAB
0
ENDSEC
0
SECTION
2
BLOCKS
0
BLOCK
5
20
100
AcDbEntity
100
AcDbBlockBegin
2
*MODEL_SPACE
0
ENDBLK
5
21
100
AcDbEntity
100
AcDbBlockEnd
0
BLOCK
5
1C
100
AcDbEntity
100
AcDbBlockBegin
2
*PAPER_SPACE
0
ENDBLK
5
1D
100
AcDbEntity
100
AcDbBlockEnd
0
ENDSEC
0
SECTION
2
ENTITIES
0
CIRCLE
5
100
100
AcDbEntity
8
CUTOUTS
100
AcDbCircle
10
-4.7006964283009367
20
94.631307197584974
30
0
40
1.4249999999999856
210
0
220
0
230
1
0
CIRCLE
5
101
100
AcDbEntity
8
CUTOUTS
100
AcDbCircle
10
0.7993035716990704
20
85.105027755956314
30
0
40
1.6750000000000074
210
0
220
0
230
1
0
CIRCLE
5
102
100
AcDbEntity
8
CUTOUTS
100
AcDbCircle
10
0.79930357169910593
20
104.15758663921396
30
0
40
1.6750000000000074
210
0
220
0
230
1
0
CIRCLE
5
103
100
AcDbEntity
8
CUTOUTS
100
AcDbCircle
10
-15.700696428300951
20
94.631307197585087
30
0
40
1.6750000000000065
210
0
220
0
230
1
0
CIRCLE
5
104
100
AcDbEntity
8
CUTOUTS
100
AcDbCircle
10
-5.0053196563796121
20
-4.6672275123650309
30
0
40
2.4249999999999998
210
0
220
0
230
1
0
ARC
5
105
100
AcDbEntity
8
CUTOUTS
100
AcDbCircle
10
-4.5964174047535877
20
-104.66639150361311
30
0
40
2.4250000000001251
210
0
220
-0
230
1
100
AcDbArc
50
58.397275724417341
51
241.7140826497594
0
ARC
5
106
100
AcDbEntity
8
CUTOUTS
100
AcDbCircle
10
-4.4747924524701332
20
-104.73645419977825
30
0
40
2.4249999999997938
210
0
220
0
230
1
100
AcDbArc
50
-121.60272427525844
51
61.714082649435397
0
ARC
5
107
100
AcDbEntity
8
CUTOUTS
100
AcDbCircle
10
-4.9337617623450924
20
-22.167081210833484
30
0
40
4.9249999999999616
210
0
220
-0
230
1
100
AcDbArc
50
0.23428438539592922
51
180.23428438539594
0
LINE
5
108
100
AcDbEntity
8
CUTOUTS
100
AcDbLine
10
-9.592934125357111
20
-87.186676241037276
30
0
11
-9.8587205889140055
21
-22.187219646726078
31
0
0
ARC
5
109
100
AcDbEntity
8
CUTOUTS
100
AcDbCircle
10
-4.6679752987881784
20
-87.166537805144699
30
0
40
4.9249999999999616
210
0
220
0
230
1
100
AcDbArc
50
-179.76571561460563
51
0.2342843853943736
0
LINE
5
10A
100
AcDbEntity
8
CUTOUTS
100
AcDbLine
10
-0.0088029357761243432
20
-22.146942774940879
30
0
11
0.25698352778077066
21
-87.146399369252094
31
0
0
ARC
5
10B
100
AcDbEntity
8
CUTOUTS
100
AcDbCircle
10
-5.3119963450991392
20
70.332145481071052
30
0
40
4.9249999999999972
210
0
220
-0
230
1
100
AcDbArc
50
0.2342843853943736
51
180.23428438539435
0
LINE
5
10C
100
AcDbEntity
8
CUTOUTS
100
AcDbLine
10
-10.001836376983135
20
12.812487750210764
30
0
11
-10.236955171668116
21
70.312007045178419
31
0
0
ARC
5
10D
100
AcDbEntity
8
CUTOUTS
100
AcDbCircle
10
-5.0768775504142027
20
12.832626186103386
30
0
40
4.9249999999999607
210
0
220
0
230
1
100
AcDbArc
50
-179.76571561460409
51
0.23428438539592922
0
LINE
5
10E
100
AcDbEntity
8
CUTOUTS
100
AcDbLine
10
-0.38703751853013557
20
70.352283916963628
30
0
11
-0.1519187238452257
21
12.852764621996036
31
0
0
ARC
5
10F
100
AcDbEntity
8
PERIMETER
100
AcDbCircle
10
11.084580780411741
20
49.149014361296906
30
0
40
3.8848217485776497
210
-0
220
0
230
1
100
AcDbArc
50
-79.697777988484361
51
80.166346759273182
0
LINE
5
110
100
AcDbEntity
8
PERIMETER
100
AcDbLine
10
10.790402371512364
20
45.322779471500674
30
0
11
11.779343744896963
21
45.326823308850486
31
0
0
ARC
5
111
100
AcDbEntity
8
PERIMETER
100
AcDbCircle
10
10.796229230212724
20
43.897790989747918
30
0
40
1.4250003948807657
210
0
220
0
230
1
100
AcDbArc
50
90.234284385395881
51
270.23428438539588
0
LINE
5
112
100
AcDbEntity
8
PERIMETER
100
AcDbLine
10
19.801980609708743
20
42.509603709666592
30
0
11
10.80205608891303
21
42.472802507995134
31
0
0
ARC
5
113
100
AcDbEntity
8
PERIMETER
100
AcDbCircle
10
19.796153751008383
20
43.934592191419327
30
0
40
1.4250003948807302
210
-0
220
0
230
1
100
AcDbArc
50
-89.765715614602698
51
90.234284385397288
0
ARC
5
114
100
AcDbEntity
8
PERIMETER
100
AcDbCircle
10
19.774686381183315
20
49.184548695837265
30
0
40
3.8249999999999669
210
0
220
0
230
1
100
AcDbArc
50
90.234284385395569
51
270.2342843853956
0
ARC
5
115
100
AcDbEntity
8
PERIMETER
100
AcDbCircle
10
19.790020215619286
20
45.434580046165479
30
0
40
7.574999999999946
210
-0
220
0
230
1
100
AcDbArc
50
-35.281699379139084
51
90.234284385395299
0
ARC
5
116
100
AcDbEntity
8
PERIMETER
100
AcDbCircle
10
107.54464808225643
20
-16.657088380347442
30
0
40
99.924999999999983
210
0
220
0
230
1
100
AcDbArc
50
144.71830062086067
51
180.23428438539435
0
LINE
5
117
100
AcDbEntity
8
PERIMETER
100
AcDbLine
10
7.9784774671458436
20
-104.61497204547113
30
0
11
7.6204834640013459
21
-17.065683955284676
31
0
0
ARC
5
118
100
AcDbEntity
8
PERIMETER
100
AcDbCircle
10
-4.5964174047535877
20
-104.66639150361311
30
0
40
12.575000000000331
210
0
220
0
230
1
100
AcDbArc
50
-119.62455240347995
51
0.2342843853943736
0
ARC
5
119
100
AcDbEntity
8
PERIMETER
100
AcDbCircle
10
-4.4747924524701332
20
-104.73645419977825
30
0
40
12.575000000000006
210
0
220
0
230
1
100
AcDbArc
50
217.27523595335663
51
239.73591077774367
0
LINE
5
11A
100
AcDbEntity
8
PERIMETER
100
AcDbLine
10
-14.548860229441196
20
-112.35271096232168
30
0
11
-14.481164143059024
21
-112.35243414918602
31
0
0
ARC
5
11B
100
AcDbEntity
8
PERIMETER
100
AcDbCircle
10
-4.5964174047535877
20
-104.66639150361311
30
0
40
12.574999999999932
210
0
220
0
230
1
100
AcDbArc
50
180.23428438539435
51
217.67908161541817
0
LINE
5
11C
100
AcDbEntity
8
PERIMETER
100
AcDbLine
10
-17.9418845871961
20
83.72963960298739
30
0
11
-17.171312276653026
21
-104.71781096175511
31
0
0
ARC
5
11D
100
AcDbEntity
8
PERIMETER
100
AcDbCircle
10
-5.4142219080056364
20
95.331936478883094
30
0
40
17.075000000000006
210
-0
220
0
230
1
100
AcDbArc
50
-42.335257361088992
51
222.80382613187956
0
LINE
5
11E
100
AcDbEntity
8
PERIMETER
100
AcDbLine
10
7.3341497441461456
20
52.958710613737985
30
0
11
7.2079051566028358
21
83.832478519271234
31
0
0
LINE
5
11F
100
AcDbEntity
8
PERIMETER
100
AcDbLine
10
11.748062722647674
20
52.976759354180949
30
0
11
7.3341497441461261
21
52.958710613737992
31
0
0
ENDSEC
0
SECTION
2
OBJECTS
0
DICTIONARY
5
C
100
AcDbDictionary
3
ACAD_GROUP
350
D
3
ACAD_MLINESTYLE
350
17
0
DICTIONARY
5
D
100
AcDbDictionary
0
DICTIONARY
5
1A
330
C
100
AcDbDictionary
0
DICTIONARY
5
17
100
AcDbDictionary
0
ENDSEC
0
EOF
