0
SECTION
2
HEADER
9
$INSUNITS
70
4
9
$ACADVER
1
AC1014
9
$HANDSEED
5
FFFF
0
ENDSEC
0
SECTION
2
TABLES
0
TABLE
2
VPORT
5
8
100
AcDbSymbolTable
0
ENDTAB
0
TABLE
2
LTYPE
5
5
100
AcDbSymbolTable
0
LTYPE
5
14
100
AcDbSymbolTableRecord
100
AcDbLinetypeTableRecord
2
BYBLOCK
70
0
0
LTYPE
5
15
100
AcDbSymbolTableRecord
100
AcDbLinetypeTableRecord
2
BYLAYER
70
0
0
ENDTAB
0
TABLE
2
LAYER
5
2
100
AcDbSymbolTable
70
2
0
LAYER
5
50
100
AcDbSymbolTableRecord
100
AcDbLayerTableRecord
2
0
70
0
6
CONTINUOUS
0
ENDTAB
0
TABLE
2
STYLE
5
3
100
AcDbSymbolTable
70
1
0
STYLE
5
11
100
AcDbSymbolTableRecord
100
AcDbTextStyleTableRecord
2
STANDARD
70
0
0
ENDTAB
0
TABLE
2
VIEW
5
6
100
AcDbSymbolTable
70
0
0
ENDTAB
0
TABLE
2
UCS
5
7
100
AcDbSymbolTable
70
0
0
ENDTAB
0
TABLE
2
APPID
5
9
100
AcDbSymbolTable
70
2
0
APPID
5
12
100
AcDbSymbolTableRecord
100
AcDbRegAppTableRecord
2
ACAD
70
0
0
ENDTAB
0
TABLE
2
DIMSTYLE
5
A
100
AcDbSymbolTable
70
1
0
ENDTAB
0
TABLE
2
BLOCK_RECORD
5
1
100
AcDbSymbolTable
70
1
0
BLOCK_RECORD
5
1F
100
AcDbSymbolTableRecord
100
AcDbBlockTableRecord
2
*MODEL_SPACE
0
BLOCK_RECORD
5
1B
100
AcDbSymbolTableRecord
100
AcDbBlockTableRecord
2
*PAPER_SPACE
0
ENDTAB
0
ENDSEC
0
SECTION
2
BLOCKS
0
BLOCK
5
20
100
AcDbEntity
100
AcDbBlockBegin
2
*MODEL_SPACE
0
ENDBLK
5
21
100
AcDbEntity
100
AcDbBlockEnd
0
BLOCK
5
1C
100
AcDbEntity
100
AcDbBlockBegin
2
*PAPER_SPACE
0
ENDBLK
5
1D
100
AcDbEntity
100
AcDbBlockEnd
0
ENDSEC
0
SECTION
2
ENTITIES
0
CIRCLE
5
100
100
AcDbEntity
8
0
100
AcDbCircle
10
99.906531368250725
20
2.6673107131985327
30
-5.5511151231257827e-16
40
1.5499999999999932
210
0
220
0
230
1
0
CIRCLE
5
101
100
AcDbEntity
8
0
100
AcDbCircle
10
199.8858110610058
20
0.63171936966894071
30
-5.5511151231257827e-16
40
1.5500000000000109
210
0
220
0
230
1
0
CIRCLE
5
102
100
AcDbEntity
8
0
100
AcDbCircle
10
234.37866255500623
20
-0.070559643848768852
30
-5.5511151231257827e-16
40
1.5500000000000109
210
0
220
0
230
1
0
CIRCLE
5
103
100
AcDbEntity
8
0
100
AcDbCircle
10
300.4757681568197
20
28.589911933965865
30
-5.5511151231257827e-16
40
2.4999999999999996
210
0
220
0
230
1
0
CIRCLE
5
104
100
AcDbEntity
8
0
100
AcDbCircle
10
299.8650907537608
20
-1.4038719738606513
30
-5.5511151231257827e-16
40
2.4999999999999996
210
0
220
0
230
1
0
CIRCLE
5
105
100
AcDbEntity
8
0
100
AcDbCircle
10
313.00544951442481
20
5.8301429308129284
30
-5.5511151231257827e-16
40
2.4999999999999996
210
0
220
0
230
1
0
CIRCLE
5
106
100
AcDbEntity
8
0
100
AcDbCircle
10
313.31078821595429
20
20.827034884726146
30
-5.5511151231257827e-16
40
2.4999999999999996
210
0
220
0
230
1
0
CIRCLE
5
107
100
AcDbEntity
8
0
100
AcDbCircle
10
287.33540939615563
20
21.355897029292279
30
-5.5511151231257827e-16
40
2.4999999999999996
210
0
220
0
230
1
0
LWPOLYLINE
5
108
100
AcDbEntity
8
0
100
AcDbPolyline
90
4
70
1
43
0.0
10
185.8702739299984
20
2.4673987886725488
10
113.98517183090752
20
3.9309889646703402
42
0.99999999999999989
10
113.9220684992581
20
0.83163129419492532
10
185.80717059834896
20
-0.6319588818028512
42
0.99999999999999989
0
LWPOLYLINE
5
109
100
AcDbEntity
8
0
100
AcDbPolyline
90
5
70
1
43
0.0
10
199.63136214306456
20
-11.865690591925443
10
143.33788197952245
20
-10.7195478984573
42
0.16035120673752468
10
271.21337404975532
20
-8.3220735814901978
10
209.7990824207169
20
-7.071670490037393
42
-0.10011218935125919
10
206.00954102829033
20
-10.265524836449476
42
-0.1338739117090777
0
CIRCLE
5
110
100
AcDbEntity
8
0
100
AcDbCircle
10
300.17042945529022
20
13.593019980052606
30
-5.5511151231257827e-16
40
7.4999999999999982
210
0
220
0
230
1
0
LWPOLYLINE
5
111
100
AcDbEntity
8
0
100
AcDbPolyline
90
4
70
1
43
0.0
10
21.44123478345967
20
2.7145532869597941
10
85.827890905593947
20
1.4036324617267324
42
0.99999999999999989
10
85.890994237243362
20
4.5029901322021395
10
21.504338115109086
20
5.8139109574352013
42
0.99999999999999989
0
LWPOLYLINE
5
112
100
AcDbEntity
8
0
100
AcDbPolyline
90
4
70
1
43
0.0
10
6.6929287844203813
20
12.066706322036378
10
-6.5330867318996368
20
12.335989745333135
42
0.45141622964513622
10
-6.8384254334290748
20
-2.6609022085801266
10
6.3875900828909362
20
-2.9301856318768831
42
0.45141622964513639
0
LWPOLYLINE
5
113
100
AcDbEntity
8
0
100
AcDbPolyline
90
3
70
1
43
0.0
10
278.80895210985744
20
6.5263881359162781
42
-0.11417287109832899
10
277.87588566888832
20
16.62671695836265
10
238.70140942637292
20
7.3429830038493202
0
CIRCLE
5
114
100
AcDbEntity
8
0
100
AcDbCircle
10
287.0300706946262
20
6.3590050753790255
30
-5.5511151231257827e-16
40
2.4999999999999996
210
0
220
0
230
1
0
ARC
5
115
100
AcDbEntity
8
0
100
AcDbCircle
10
46.499669853054016
20
20.067883363745938
30
-5.5511151231257827e-16
40
3.8098217485776549
210
0
220
-0
230
1
100
AcDbArc
50
9.0004229798394277
51
168.66680004246359
0
LINE
5
116
100
AcDbEntity
8
0
100
AcDbLine
10
42.76413599699864
20
20.816567920952359
30
-5.5511151231257827e-16
11
42.672894462857741
21
16.335185697322427
31
-5.5511151231257827e-16
0
LINE
5
117
100
AcDbEntity
8
0
100
AcDbLine
10
42.672894462857741
20
16.335185697322427
30
-5.5511151231257827e-16
11
15.790960632501086
21
16.88250542167502
31
-5.5511151231257827e-16
0
ARC
5
118
100
AcDbEntity
8
0
100
AcDbCircle
10
-0.072748324504346165
20
4.7029020567281252
30
-5.5511151231257827e-16
40
20
210
0
220
-0
230
1
100
AcDbArc
50
37.515798964640922
51
320.15142405766204
0
LINE
5
119
100
AcDbEntity
8
0
100
AcDbLine
10
15.282062796618678
20
-8.1123145015137474
30
-5.5511151231257827e-16
11
113.85362678219568
21
-10.119244567261704
31
-5.5511151231257827e-16
0
ARC
5
120
100
AcDbEntity
8
0
100
AcDbCircle
10
203.63388860504045
20
184.72077745900941
30
-5.5511151231257827e-16
40
214.53002026797176
210
0
220
0
230
1
100
AcDbArc
50
245.26023983752083
51
295.55011463747849
0
LINE
5
121
100
AcDbEntity
8
0
100
AcDbLine
10
296.16077047931896
20
-8.8300058687770111
30
-5.5511151231257827e-16
11
299.71242140299609
21
-8.9023179508172809
31
-5.5511151231257827e-16
0
ARC
5
122
100
AcDbEntity
8
0
100
AcDbCircle
10
300.17042945529022
20
13.593019980052606
30
-5.5511151231257827e-16
40
22.499999999999996
210
0
220
0
230
1
100
AcDbArc
50
-91.166388488848455
51
158.24422729075545
0
LINE
5
123
100
AcDbEntity
8
0
100
AcDbLine
10
279.27305465233593
20
21.932667835019153
30
-5.5511151231257827e-16
11
219.36994491907177
21
7.7365741752374433
31
-5.5511151231257827e-16
0
LINE
5
124
100
AcDbEntity
8
0
100
AcDbLine
10
219.36994491907177
20
7.7365741752374433
30
-5.5511151231257827e-16
11
210.03640838104599
21
7.9266062122726062
31
-5.5511151231257827e-16
0
ARC
5
125
100
AcDbEntity
8
0
100
AcDbCircle
10
199.8858110610058
20
0.63171936966894071
30
-5.5511151231257827e-16
40
12.499999999999968
210
0
220
-0
230
1
100
AcDbArc
50
35.703509156995601
51
88.833611511151759
0
LINE
5
126
100
AcDbEntity
8
0
100
AcDbLine
10
200.14025997894694
20
13.129129331263316
30
-5.5511151231257827e-16
11
112.60838059607124
21
14.911289959967773
31
-5.5511151231257827e-16
0
ARC
5
127
100
AcDbEntity
8
0
100
AcDbCircle
10
114.64397193960087
20
114.89056965272282
30
-5.5511151231257827e-16
40
99.999999999999972
210
0
220
0
230
1
100
AcDbArc
50
233.31762774661664
51
268.83361151115145
0
ARC
5
128
100
AcDbEntity
8
0
100
AcDbCircle
10
50.425789357755576
20
28.679926308152098
30
-5.5511151231257827e-16
40
7.4999999999999991
210
0
220
-0
230
1
100
AcDbArc
50
53.317627746616878
51
178.83361151115147
0
ARC
5
129
100
AcDbEntity
8
0
100
AcDbCircle
10
46.676566369277268
20
28.75626098353445
30
-5.5511151231257827e-16
40
3.7500000000000093
210
0
220
0
230
1
100
AcDbArc
50
178.83361151115147
51
358.83361151115179
0
ARC
5
130
100
AcDbEntity
8
0
100
AcDbCircle
10
51.925478947945855
20
28.649392429960994
30
-5.5511151231257827e-16
40
1.500000394880775
210
-0
220
0
230
1
100
AcDbArc
50
-1.1663884888481972
51
178.83361151115179
0
LINE
5
131
100
AcDbEntity
8
0
100
AcDbLine
10
53.425168538136134
20
28.618858551769893
30
-5.5511151231257827e-16
11
53.241965322071678
21
19.620723617791111
31
-5.5511151231257827e-16
0
ARC
5
132
100
AcDbEntity
8
0
100
AcDbCircle
10
51.742275731881421
20
19.651257495982211
30
-5.5511151231257827e-16
40
1.5000003948807661
210
0
220
0
230
1
100
AcDbArc
50
178.83361151115147
51
358.8336115111515
0
LINE
5
133
100
AcDbEntity
8
0
100
AcDbLine
10
50.242586141691149
20
19.681791374173315
30
-5.5511151231257827e-16
11
50.262581973955271
21
20.663898570187641
31
-5.5511151231257827e-16
0
ENDSEC
0
SECTION
2
OBJECTS
0
DICTIONARY
5
C
100
AcDbDictionary
3
ACAD_GROUP
350
D
3
ACAD_MLINESTYLE
350
17
0
DICTIONARY
5
D
100
AcDbDictionary
0
DICTIONARY
5
1A
330
C
100
AcDbDictionary
0
DICTIONARY
5
17
100
AcDbDictionary
0
ENDSEC
0
EOF
