0
SECTION
2
HEADER
9
$INSUNITS
70
4
9
$ACADVER
1
AC1014
9
$HANDSEED
5
FFFF
0
ENDSEC
0
SECTION
2
TABLES
0
TABLE
2
VPORT
5
8
100
AcDbSymbolTable
0
ENDTAB
0
TABLE
2
LTYPE
5
5
100
AcDbSymbolTable
70
2
0
LTYPE
5
14
100
AcDbSymbolTableRecord
100
AcDbLinetypeTableRecord
2
BYBLOCK
70
0
0
LTYPE
5
15
100
AcDbSymbolTableRecord
100
AcDbLinetypeTableRecord
2
BYLAYER
70
0
0
ENDTAB
0
TABLE
2
LAYER
5
2
100
AcDbSymbolTable
70
3
0
LAYER
5
50
100
AcDbSymbolTableRecord
100
AcDbLayerTableRecord
2
0
70
0
6
CONTINUOUS
0
LAYER
5
51
100
AcDbSymbolTableRecord
100
AcDbLayerTableRecord
2
CUTOUTS
70
0
62
1
6
CONTINUOUS
0
LAYER
5
52
100
AcDbSymbolTableRecord
100
AcDbLayerTableRecord
2
PERIMETER
70
0
62
5
6
CONTINUOUS
0
ENDTAB
0
TABLE
2
STYLE
5
3
100
AcDbSymbolTable
70
1
0
STYLE
5
11
100
AcDbSymbolTableRecord
100
AcDbTextStyleTableRecord
2
STANDARD
70
0
0
ENDTAB
0
TABLE
2
VIEW
5
6
100
AcDbSymbolTable
0
ENDTAB
0
TABLE
2
UCS
5
7
100
AcDbSymbolTable
0
ENDTAB
0
TABLE
2
APPID
5
9
100
AcDbSymbolTable
70
1
0
APPID
5
12
100
AcDbSymbolTableRecord
100
AcDbRegAppTableRecord
2
ACAD
70
0
0
ENDTAB
0
TABLE
2
DIMSTYLE
5
A
100
AcDbSymbolTable
0
ENDTAB
0
TABLE
2
BLOCK_RECORD
5
1
100
AcDbSymbolTable
70
2
0
BLOCK_RECORD
5
1F
100
AcDbSymbolTableRecord
100
AcDbBlockTableRecord
2
*MODEL_SPACE
0
BLOCK_RECORD
5
1B
100
AcDbSymbolTableRecord
100
AcDbBlockTableRecord
2
*PAPER_SPACE
0
ENDTAB
0
ENDSEC
0
SECTION
2
BLOCKS
0
BLOCK
5
20
100
AcDbEntity
100
AcDbBlockBegin
2
*MODEL_SPACE
0
ENDBLK
5
21
100
AcDbEntity
100
AcDbBlockEnd
0
BLOCK
5
1C
100
AcDbEntity
100
AcDbBlockBegin
2
*PAPER_SPACE
0
ENDBLK
5
1D
100
AcDbEntity
100
AcDbBlockEnd
0
ENDSEC
0
SECTION
2
ENTITIES
0
CIRCLE
5
100
100
AcDbEntity
8
CUTOUTS
100
AcDbCircle
10
3.9281642161928216
20
9.1230700351804028
30
0
40
1.674999999999998
210
0
220
0
230
1
0
CIRCLE
5
101
100
AcDbEntity
8
CUTOUTS
100
AcDbCircle
10
-12.170409918787383
20
-1.0669206822121309
30
0
40
1.6749999999999998
210
0
220
0
230
1
0
CIRCLE
5
102
100
AcDbEntity
8
CUTOUTS
100
AcDbCircle
10
4.7036679742922658
20
-9.9136994891158192
30
0
40
1.6749999999999994
210
0
220
0
230
1
0
ARC
5
103
100
AcDbEntity
8
CUTOUTS
100
AcDbCircle
10
-11.94809504130761
20
41.526847500265603
30
0
40
1.4250000000000007
210
0
220
-0
230
1
100
AcDbArc
50
14.332776976088828
51
194.33277576867007
0
LINE
5
104
100
AcDbEntity
8
CUTOUTS
100
AcDbLine
10
-6.6448014192837874
20
15.01447865554333
30
0
11
-13.328740880446661
21
41.174084028704236
31
0
0
ARC
5
105
100
AcDbEntity
8
CUTOUTS
100
AcDbCircle
10
-5.2641555801447399
20
15.367242127104703
30
0
40
1.4250000000000007
210
0
220
0
230
1
100
AcDbArc
50
-165.66722302391111
51
14.332775768670688
0
LINE
5
106
100
AcDbEntity
8
CUTOUTS
100
AcDbLine
10
-10.567449202168561
20
41.87961097182697
30
0
11
-3.8835097410056929
21
15.720005598666074
31
0
0
ARC
5
107
100
AcDbEntity
8
CUTOUTS
100
AcDbCircle
10
6.125231793518477
20
42.26310334787037
30
0
40
1.4249999999999987
210
-0
220
0
230
1
100
AcDbArc
50
-9.667223023910541
51
170.33277576867115
0
LINE
5
108
100
AcDbEntity
8
CUTOUTS
100
AcDbLine
10
0.18647968857353689
20
15.885805373361867
30
0
11
4.7204672283372044
21
42.502397134691222
31
0
0
ARC
5
109
100
AcDbEntity
8
CUTOUTS
100
AcDbCircle
10
1.5912442537548088
20
15.646511586541003
30
0
40
1.4249999999999985
210
0
220
0
230
1
100
AcDbArc
50
170.33277697608884
51
350.33277697608889
0
LINE
5
10A
100
AcDbEntity
8
CUTOUTS
100
AcDbLine
10
7.5299963586997496
20
42.023809561049525
30
0
11
2.9960088189360805
21
15.407217799720145
31
0
0
LINE
5
10B
100
AcDbEntity
8
CUTOUTS
100
AcDbLine
10
6.7815660187640701
20
13.903269592830581
30
0
11
21.749512940492902
21
36.374597247642349
31
0
0
ARC
5
10C
100
AcDbEntity
8
CUTOUTS
100
AcDbCircle
10
22.935499659863652
20
35.584622247103596
30
0
40
1.4250000000000052
210
-0
220
0
230
1
100
AcDbArc
50
-33.667223023911234
51
146.33277697608904
0
LINE
5
10D
100
AcDbEntity
8
CUTOUTS
100
AcDbLine
10
24.121486395881874
20
34.794647271557622
30
0
11
9.1535394908005117
21
12.32331964173866
31
0
0
ARC
5
10E
100
AcDbEntity
8
CUTOUTS
100
AcDbCircle
10
7.9675527547822931
20
13.113294617284621
30
0
40
1.4249999999999985
210
0
220
0
230
1
100
AcDbArc
50
146.33277697608875
51
326.33277697608872
0
LINE
5
10F
100
AcDbEntity
8
CUTOUTS
100
AcDbLine
10
36.338201552993972
20
21.442111938082054
30
0
11
13.524389282012228
21
7.0015451325718807
31
0
0
ARC
5
110
100
AcDbEntity
8
CUTOUTS
100
AcDbCircle
10
12.76224825616586
20
8.2056074468736995
30
0
40
1.4249999999999998
210
0
220
0
230
1
100
AcDbArc
50
122.33277697608879
51
302.33277697608878
0
LINE
5
111
100
AcDbEntity
8
CUTOUTS
100
AcDbLine
10
12.00010723031949
20
9.4096697611755111
30
0
11
34.813919501301214
21
23.85023656668568
31
0
0
ARC
5
112
100
AcDbEntity
8
CUTOUTS
100
AcDbCircle
10
35.576060527147597
20
22.646174252383865
30
0
40
1.4250000000000027
210
-0
220
0
230
1
100
AcDbArc
50
-57.667223023910914
51
122.33277576867098
0
ARC
5
113
100
AcDbEntity
8
CUTOUTS
100
AcDbCircle
10
41.861246585526573
20
5.6849345641082856
30
0
40
1.4249999999999996
210
-0
220
0
230
1
100
AcDbArc
50
-81.667223023911802
51
98.332776976088198
0
LINE
5
114
100
AcDbEntity
8
CUTOUTS
100
AcDbLine
10
14.939770138803294
20
3.1819901123627026
30
0
11
41.654732377054756
21
7.0948909044604456
31
0
0
ARC
5
115
100
AcDbEntity
8
CUTOUTS
100
AcDbCircle
10
15.146284347275119
20
1.7720337720105428
30
0
40
1.4249999999999994
210
0
220
0
230
1
100
AcDbArc
50
98.332776976088695
51
278.33277576867044
0
LINE
5
116
100
AcDbEntity
8
CUTOUTS
100
AcDbLine
10
42.067760793998382
20
4.2749782237561256
30
0
11
15.352798555746947
21
0.36207743165838413
31
0
0
LINE
5
117
100
AcDbEntity
8
CUTOUTS
100
AcDbLine
10
40.319471274713827
20
-13.738400493699576
30
0
11
14.322618729530451
21
-6.4470591754682225
31
0
0
ARC
5
118
100
AcDbEntity
8
CUTOUTS
100
AcDbCircle
10
14.707439529669328
20
-5.0750030717390517
30
0
40
1.4249999999999994
210
0
220
-0
230
1
100
AcDbArc
50
74.332777874797856
51
254.33277639601852
0
LINE
5
119
100
AcDbEntity
8
CUTOUTS
100
AcDbLine
10
15.092260299818218
20
-3.7029469595985849
30
0
11
41.089112858054193
21
-10.994288281490803
31
0
0
ARC
5
11A
100
AcDbEntity
8
CUTOUTS
100
AcDbCircle
10
40.704292066384006
20
-12.36634438759519
30
0
40
1.4250000000000009
210
0
220
0
230
1
100
AcDbArc
50
-105.66722302391123
51
74.332776976088766
0
ARC
5
11B
100
AcDbEntity
8
CUTOUTS
100
AcDbCircle
10
32.305244916681531
20
-28.386432481255955
30
0
40
1.4249999999999894
210
0
220
0
230
1
100
AcDbArc
50
-129.66722302391113
51
50.332776976088894
0
LINE
5
11C
100
AcDbEntity
8
CUTOUTS
100
AcDbLine
10
12.431210840037805
20
-10.054673304341069
30
0
11
33.214861697626816
21
-27.28951757488321
31
0
0
ARC
5
11D
100
AcDbEntity
8
CUTOUTS
100
AcDbCircle
10
11.521594059092525
20
-11.151588210713822
30
0
40
1.4249999999999987
210
0
220
-0
230
1
100
AcDbArc
50
50.33277697608878
51
230.33277697608878
0
LINE
5
11E
100
AcDbEntity
8
CUTOUTS
100
AcDbLine
10
31.395628135736256
20
-29.483347387628704
30
0
11
10.61197727814724
21
-12.248503117086573
31
0
0
ARC
5
11F
100
AcDbEntity
8
CUTOUTS
100
AcDbCircle
10
18.116376691550652
20
-39.605310947548709
30
0
40
1.4249999999999983
210
0
220
0
230
1
100
AcDbArc
50
-153.66722302391105
51
26.332775768670999
0
LINE
5
120
100
AcDbEntity
8
CUTOUTS
100
AcDbLine
10
7.4167413250908503
20
-14.774917716171913
30
0
11
19.393508470057213
21
-38.973203820292042
31
0
0
ARC
5
121
100
AcDbEntity
8
CUTOUTS
100
AcDbCircle
10
6.1396095599049447
20
-15.407024870342106
30
0
40
1.4250000000000012
210
0
220
-0
230
1
100
AcDbArc
50
26.332776976088908
51
206.33277576867067
0
LINE
5
122
100
AcDbEntity
8
CUTOUTS
100
AcDbLine
10
16.839244926364749
20
-40.237418101718902
30
0
11
4.8624777947190401
21
-16.039132024512291
31
0
0
ARC
5
123
100
AcDbEntity
8
CUTOUTS
100
AcDbCircle
10
-39.705709864387472
20
19.579409390808788
30
0
40
1.4250000000000076
210
0
220
-0
230
1
100
AcDbArc
50
62.332776976088596
51
242.33277697608858
0
LINE
5
124
100
AcDbEntity
8
CUTOUTS
100
AcDbLine
10
-16.454584049484112
20
5.780287152545629
30
0
11
-40.367387903389144
21
18.317344744008587
31
0
0
ARC
5
125
100
AcDbEntity
8
CUTOUTS
100
AcDbCircle
10
-15.792906030278473
20
7.0423518097245346
30
0
40
1.4250000000000007
210
0
220
0
230
1
100
AcDbArc
50
-117.66722212520202
51
62.33277787479782
0
LINE
5
126
100
AcDbEntity
8
CUTOUTS
100
AcDbLine
10
-39.044031825385794
20
20.84147403760899
30
0
11
-15.131227983487015
21
8.3044164524406803
31
0
0
ARC
5
127
100
AcDbEntity
8
CUTOUTS
100
AcDbCircle
10
-32.294774753378704
20
-31.018053248817981
30
0
40
1.4249999999999994
210
0
220
0
230
1
100
AcDbArc
50
134.33277697608881
51
314.33277697608884
0
LINE
5
128
100
AcDbEntity
8
CUTOUTS
100
AcDbLine
10
-11.986036630358011
20
-13.169081826056226
30
0
11
-31.298949705909848
21
-32.037345883360999
31
0
0
ARC
5
129
100
AcDbEntity
8
CUTOUTS
100
AcDbCircle
10
-12.981861677826876
20
-12.149789191513211
30
0
40
1.4249999999999994
210
-0
220
0
230
1
100
AcDbArc
50
-45.667223023911305
51
134.33277576867044
0
LINE
5
12A
100
AcDbEntity
8
CUTOUTS
100
AcDbLine
10
-33.290599800847566
20
-29.998760614274971
30
0
11
-13.977686725295737
21
-11.130496556970202
31
0
0
LINE
5
12B
100
AcDbEntity
8
CUTOUTS
100
AcDbLine
10
-42.46420222273828
20
-14.398012309568353
30
0
11
-17.146563825385613
21
-5.0162648187811101
31
0
0
ARC
5
12C
100
AcDbEntity
8
CUTOUTS
100
AcDbCircle
10
-16.651416041149623
20
-6.3524735119747255
30
0
40
1.4249999999999989
210
-0
220
0
230
1
100
AcDbArc
50
-69.66722302391139
51
110.33277576867053
0
LINE
5
12D
100
AcDbEntity
8
CUTOUTS
100
AcDbLine
10
-16.156268256913634
20
-7.6886822051683401
30
0
11
-41.473906654266329
21
-17.070429695955593
31
0
0
ARC
5
12E
100
AcDbEntity
8
CUTOUTS
100
AcDbCircle
10
-41.969054438502305
20
-15.734221002761972
30
0
40
1.4249999999999974
210
0
220
0
230
1
100
AcDbArc
50
110.33277697608808
51
290.33277576866965
0
LINE
5
12F
100
AcDbEntity
8
CUTOUTS
100
AcDbLine
10
-0.8327474559104947
20
-44.141136111838605
30
0
11
-1.9317390190377233
21
-17.16351172524417
31
0
0
ARC
5
130
100
AcDbEntity
8
CUTOUTS
100
AcDbCircle
10
-0.50791995418968039
20
-17.105509392745788
30
0
40
1.4250000000000029
210
0
220
-0
230
1
100
AcDbArc
50
2.3327769760887835
51
182.33277697608861
0
LINE
5
131
100
AcDbEntity
8
CUTOUTS
100
AcDbLine
10
0.9158991106583626
20
-17.047507060247405
30
0
11
2.0148906737855907
21
-44.025131446841826
31
0
0
ARC
5
132
100
AcDbEntity
8
CUTOUTS
100
AcDbCircle
10
0.59107160893754795
20
-44.083133779340216
30
0
40
1.4250000000000029
210
0
220
0
230
1
100
AcDbArc
50
-177.66722302391094
51
2.3327769760890957
0
LINE
5
133
100
AcDbEntity
8
CUTOUTS
100
AcDbLine
10
-27.04163753911741
20
34.386984749969663
30
0
11
-10.295484931546802
21
13.207599186550789
31
0
0
ARC
5
134
100
AcDbEntity
8
CUTOUTS
100
AcDbCircle
10
-11.413285836282796
20
12.32377446559568
30
0
40
1.4249999999999972
210
0
220
0
230
1
100
AcDbArc
50
-141.66722302391113
51
38.332776976088915
0
LINE
5
135
100
AcDbEntity
8
CUTOUTS
100
AcDbLine
10
-12.53108674101879
20
11.439949744640568
30
0
11
-29.277239348589397
21
32.619335308059433
31
0
0
ARC
5
136
100
AcDbEntity
8
CUTOUTS
100
AcDbCircle
10
-28.159438443853407
20
33.503160029014552
30
0
40
1.4250000000000018
210
0
220
-0
230
1
100
AcDbArc
50
38.33277697608888
51
218.33277697608887
0
ARC
5
137
100
AcDbEntity
8
CUTOUTS
100
AcDbCircle
10
-17.240385869975455
20
-41.045644729270371
30
0
40
1.4249999999999958
210
0
220
0
230
1
100
AcDbArc
50
158.33277697608887
51
338.33277576867067
0
LINE
5
138
100
AcDbEntity
8
CUTOUTS
100
AcDbLine
10
-5.9472611260867945
20
-16.479489993150814
30
0
11
-15.916070756767638
21
-41.571776348667413
31
0
0
ARC
5
139
100
AcDbEntity
8
CUTOUTS
100
AcDbCircle
10
-7.2715762392946122
20
-15.953358373753773
30
0
40
1.424999999999998
210
-0
220
0
230
1
100
AcDbArc
50
-21.667223023911117
51
158.33277576867059
0
LINE
5
13A
100
AcDbEntity
8
CUTOUTS
100
AcDbLine
10
-18.564700983183272
20
-40.51951310987333
30
0
11
-8.5958913525024307
21
-15.427226754356727
31
0
0
ARC
5
13B
100
AcDbEntity
8
CUTOUTS
100
AcDbCircle
10
-17.645740042989516
20
0.43618011690992997
30
0
40
1.4250000000000005
210
0
220
0
230
1
100
AcDbArc
50
-93.667222125202386
51
86.332776667379562
0
LINE
5
13C
100
AcDbEntity
8
CUTOUTS
100
AcDbLine
10
-44.499309050548881
20
3.5852206940137243
30
0
11
-17.5545950350125
21
1.858262247984247
31
0
0
ARC
5
13D
100
AcDbEntity
8
CUTOUTS
100
AcDbCircle
10
-44.590454079716572
20
2.1631385642975753
30
0
40
1.4249999999999996
210
0
220
-0
230
1
100
AcDbArc
50
86.332776976088411
51
266.33277697608867
0
LINE
5
13E
100
AcDbEntity
8
CUTOUTS
100
AcDbLine
10
-17.736885049851228
20
-0.98590201423586987
30
0
11
-44.681599108884257
21
0.74105643458142412
31
0
0
ARC
5
13F
100
AcDbEntity
8
PERIMETER
100
AcDbCircle
10
8.4728847783585675
20
56.044905910568268
30
0
40
1.0750000000000057
210
0
220
-0
230
1
100
AcDbArc
50
13.71586448386644
51
146.94968946831116
0
LINE
5
140
100
AcDbEntity
8
PERIMETER
100
AcDbLine
10
7.5718283723050117
20
56.631184302724982
30
0
11
2.8000727964597862
21
49.297431281535758
31
0
0
ARC
5
141
100
AcDbEntity
8
PERIMETER
100
AcDbCircle
10
-1.1795259094113824
20
-0.61918337871941287
30
0
40
50.075000000001744
210
0
220
-0
230
1
100
AcDbArc
50
85.441739097628997
51
87.223814854600491
0
LINE
5
142
100
AcDbEntity
8
PERIMETER
100
AcDbLine
10
1.2458373961715172
20
49.397046365595628
30
0
11
-2.5506414862427045
21
57.279960341202042
31
0
0
ARC
5
143
100
AcDbEntity
8
PERIMETER
100
AcDbCircle
10
-3.5191701666558983
20
56.813508633929914
30
0
40
1.0750000000000091
210
0
220
-0
230
1
100
AcDbArc
50
25.715864483866614
51
158.94968946831182
0
LINE
5
144
100
AcDbEntity
8
PERIMETER
100
AcDbLine
10
-4.5224304601662393
20
57.199635275675291
30
0
11
-7.6651387372921009
21
49.034038583681728
31
0
0
ARC
5
145
100
AcDbEntity
8
PERIMETER
100
AcDbCircle
10
-1.1795259094113824
20
-0.61918337871941287
30
0
40
50.075000000006455
210
0
220
0
230
1
100
AcDbArc
50
97.441739097628016
51
99.223814854599084
0
LINE
5
146
100
AcDbEntity
8
PERIMETER
100
AcDbLine
10
-9.2061215056174834
20
48.808333129149077
30
0
11
-11.946949229521596
21
52.352521208776366
31
0
0
LINE
5
147
100
AcDbEntity
8
PERIMETER
100
AcDbLine
10
-11.9469492295216
20
52.352521208776359
30
0
11
-17.328793286538318
21
49.853257504487132
31
0
0
LINE
5
148
100
AcDbEntity
8
PERIMETER
100
AcDbLine
10
-17.328793286538314
20
49.853257504487146
30
0
11
-17.846897869043385
21
46.600561823477108
31
0
0
ARC
5
149
100
AcDbEntity
8
PERIMETER
100
AcDbCircle
10
-1.1795259094113824
20
-0.61918337871941287
30
0
40
50.075000000010881
210
0
220
0
230
1
100
AcDbArc
50
109.44173909762594
51
111.22381485459722
0
LINE
5
14A
100
AcDbEntity
8
PERIMETER
100
AcDbLine
10
-19.307279663974654
20
46.059400241769822
30
0
11
-22.649828457583343
21
48.892496992169058
31
0
0
LINE
5
14B
100
AcDbEntity
8
PERIMETER
100
AcDbLine
10
-22.649828457583343
20
48.892496992169058
30
0
11
-27.639565312174309
21
48.689229327572725
31
0
0
LINE
5
14C
100
AcDbEntity
8
PERIMETER
100
AcDbLine
10
-27.639565312174309
20
48.689229327572718
30
0
11
-27.300212867235555
21
42.103355612459964
31
0
0
ARC
5
14D
100
AcDbEntity
8
PERIMETER
100
AcDbCircle
10
-1.1795259094113824
20
-0.61918337871941287
30
0
40
50.075000000014867
210
0
220
0
230
1
100
AcDbArc
50
121.44173909762283
51
123.2238148545935
0
LINE
5
14E
100
AcDbEntity
8
PERIMETER
100
AcDbLine
10
-28.616167996644172
20
41.270389261480382
30
0
11
-36.321044511254591
21
45.416286335218636
31
0
0
ARC
5
14F
100
AcDbEntity
8
PERIMETER
100
AcDbCircle
10
-36.830427238807189
20
44.469632102211101
30
0
40
1.0750000000000079
210
0
220
-0
230
1
100
AcDbArc
50
61.715864483866561
51
194.94968946831111
0
LINE
5
150
100
AcDbEntity
8
PERIMETER
100
AcDbLine
10
-37.869041411573818
20
44.192313512628047
30
0
11
-35.61192850440942
21
35.738969442041373
31
0
0
ARC
5
151
100
AcDbEntity
8
PERIMETER
100
AcDbCircle
10
-1.1795259094113824
20
-0.61918337871941287
30
0
40
50.075000000018221
210
0
220
0
230
1
100
AcDbArc
50
133.44173909761884
51
135.2238148545899
0
LINE
5
152
100
AcDbEntity
8
PERIMETER
100
AcDbLine
10
-36.725943414487745
20
34.650602948342801
30
0
11
-45.124430361761078
21
37.103968320214719
31
0
0
ARC
5
153
100
AcDbEntity
8
PERIMETER
100
AcDbCircle
10
-45.425861372367507
20
36.072094129315076
30
0
40
1.0750000000000011
210
0
220
-0
230
1
100
AcDbArc
50
73.715864483866568
51
206.94968946831102
0
LINE
5
154
100
AcDbEntity
8
PERIMETER
100
AcDbLine
10
-46.384121556691881
20
35.584895587508349
30
0
11
-42.41878292318377
21
27.78555752758173
31
0
0
ARC
5
155
100
AcDbEntity
8
PERIMETER
100
AcDbCircle
10
-1.1795259094113824
20
-0.61918337871941287
30
0
40
50.075000000020715
210
0
220
0
230
1
100
AcDbArc
50
145.44173909761415
51
147.22381485458564
0
LINE
5
156
100
AcDbEntity
8
PERIMETER
100
AcDbLine
10
-43.282169816724533
20
26.489357729500735
30
0
11
-52.007213016653552
21
27.142967560202294
31
0
0
ARC
5
157
100
AcDbEntity
8
PERIMETER
100
AcDbCircle
10
-52.087518328723867
20
26.070971265034565
30
0
40
1.0750000000000179
210
0
220
-0
230
1
100
AcDbArc
50
85.715864483865758
51
218.9496894683123
0
LINE
5
158
100
AcDbEntity
8
PERIMETER
100
AcDbLine
10
-52.923543956308514
20
25.39518568511906
30
0
11
-47.423283922546837
21
18.590722134447695
31
0
0
ARC
5
159
100
AcDbEntity
8
PERIMETER
100
AcDbCircle
10
-1.1795259094113824
20
-0.61918337871941287
30
0
40
50.075000000022342
210
0
220
0
230
1
100
AcDbArc
50
157.44173909760897
51
159.22381485458024
0
LINE
5
15A
100
AcDbEntity
8
PERIMETER
100
AcDbLine
10
-47.99830864931215
20
17.143339183017339
30
0
11
-56.668581846657702
21
15.968627586578689
31
0
0
ARC
5
15B
100
AcDbEntity
8
PERIMETER
100
AcDbCircle
10
-56.52425173270678
20
14.903360569250676
30
0
40
1.0750000000000084
210
0
220
0
230
1
100
AcDbArc
50
97.715864483865772
51
230.9496894683121
0
LINE
5
15C
100
AcDbEntity
8
PERIMETER
100
AcDbLine
10
-57.201504471930171
20
14.068523023847725
30
0
11
-50.406710794566251
21
8.5563216910346078
31
0
0
ARC
5
15D
100
AcDbEntity
8
PERIMETER
100
AcDbCircle
10
-1.1795259094113824
20
-0.61918337871941287
30
0
40
50.075000000022968
210
0
220
0
230
1
100
AcDbArc
50
169.44173909760349
51
171.22381485457515
0
LINE
5
15E
100
AcDbEntity
8
PERIMETER
100
AcDbLine
10
-50.668242014721883
20
7.0210131665458704
30
0
11
-56.466423596477462
21
4.9431521544438572
31
0
0
LINE
5
15F
100
AcDbEntity
8
PERIMETER
100
AcDbLine
10
-56.466423596477455
20
4.9431521544438564
30
0
11
-54.488996241670861
21
-0.21937355358668198
31
0
0
LINE
5
160
100
AcDbEntity
8
PERIMETER
100
AcDbLine
10
-54.488996241670868
20
-0.21937355358668365
30
0
11
-51.238673468864313
21
-1.8790923528848622
31
0
0
ARC
5
161
100
AcDbEntity
8
PERIMETER
100
AcDbCircle
10
-1.1795259094113824
20
-0.61918337871941287
30
0
40
50.075000000022605
210
0
220
0
230
1
100
AcDbArc
50
181.44173909759792
51
183.22381485456941
0
LINE
5
162
100
AcDbEntity
8
PERIMETER
100
AcDbLine
10
-51.175281013123303
20
-3.4352261006838996
30
0
11
-52.85871961466357
21
-4.4755830055640331
31
0
0
LINE
5
163
100
AcDbEntity
8
PERIMETER
100
AcDbLine
10
-52.85871961466357
20
-4.475583005564034
30
0
11
-49.892029310233525
21
-12.220805568181563
31
0
0
ARC
5
164
100
AcDbEntity
8
PERIMETER
100
AcDbCircle
10
-1.1795259094113824
20
-0.61918337871941287
30
0
40
50.075000000021255
210
0
220
0
230
1
100
AcDbArc
50
193.39629013622141
51
195.22381485456469
0
LINE
5
165
100
AcDbEntity
8
PERIMETER
100
AcDbLine
10
-49.497265607243236
20
-13.768390788091764
30
0
11
-55.821185817685581
21
-19.815011151845599
31
0
0
ARC
5
166
100
AcDbEntity
8
PERIMETER
100
AcDbCircle
10
-55.078272060160202
20
-20.591995159969031
30
0
40
1.0750000000000119
210
0
220
0
230
1
100
AcDbArc
50
133.71586448386569
51
266.94968946831153
0
LINE
5
167
100
AcDbEntity
8
PERIMETER
100
AcDbLine
10
-55.13547583843102
20
-21.665472093932475
30
0
11
-46.398381629077704
21
-22.13105713266987
31
0
0
ARC
5
168
100
AcDbEntity
8
PERIMETER
100
AcDbCircle
10
-1.1795259094113824
20
-0.61918337871941287
30
0
40
50.075000000018989
210
0
220
0
230
1
100
AcDbArc
50
205.44173909758788
51
207.22381485455938
0
LINE
5
169
100
AcDbEntity
8
PERIMETER
100
AcDbLine
10
-45.707533122330169
20
-23.526872014811797
30
0
11
-50.636097439844946
21
-30.756176159715615
31
0
0
ARC
5
16A
100
AcDbEntity
8
PERIMETER
100
AcDbCircle
10
-49.747874071502068
20
-31.361720747611194
30
0
40
1.0749999999999902
210
0
220
0
230
1
100
AcDbArc
50
145.71586448386566
51
278.94968946831187
0
LINE
5
16B
100
AcDbEntity
8
PERIMETER
100
AcDbLine
10
-49.580639405576377
20
-32.423632969272056
30
0
11
-40.937671094688838
21
-31.062499827949921
31
0
0
ARC
5
16C
100
AcDbEntity
8
PERIMETER
100
AcDbCircle
10
-1.1795259094113824
20
-0.61918337871941287
30
0
40
50.075000000015883
210
0
220
0
230
1
100
AcDbArc
50
217.44173909758371
51
219.2238148545556
0
LINE
5
16D
100
AcDbEntity
8
PERIMETER
100
AcDbLine
10
-39.971713053128539
20
-32.284177324848905
30
0
11
-43.28951956716503
21
-40.380209969719971
31
0
0
ARC
5
16E
100
AcDbEntity
8
PERIMETER
100
AcDbCircle
10
-42.294806211369831
20
-40.787849933171351
30
0
40
1.0749999999999962
210
0
220
0
230
1
100
AcDbArc
50
157.71586448386628
51
290.94968946831244
0
LINE
5
16F
100
AcDbEntity
8
PERIMETER
100
AcDbLine
10
-41.910442058629542
20
-41.791786782822875
30
0
11
-33.739338834956996
21
-38.663423511158435
31
0
0
ARC
5
170
100
AcDbEntity
8
PERIMETER
100
AcDbCircle
10
-1.1795259094113824
20
-0.61918337871941287
30
0
40
50.075000000012089
210
0
220
0
230
1
100
AcDbArc
50
229.44173909758035
51
231.22381485455222
0
LINE
5
171
100
AcDbEntity
8
PERIMETER
100
AcDbLine
10
-32.5404882601811
20
-39.657570453940835
30
0
11
-34.102532905473844
21
-48.266496123123545
31
0
0
ARC
5
172
100
AcDbEntity
8
PERIMETER
100
AcDbCircle
10
-33.044803309038812
20
-48.458415639654348
30
0
40
1.0750000000000071
210
0
220
0
230
1
100
AcDbArc
50
169.71586448386614
51
302.94968946831102
0
LINE
5
173
100
AcDbEntity
8
PERIMETER
100
AcDbLine
10
-32.460108227342523
20
-49.360500259543286
30
0
11
-25.117986511062895
21
-44.601631344060728
31
0
0
ARC
5
174
100
AcDbEntity
8
PERIMETER
100
AcDbCircle
10
-1.1795259094113824
20
-0.61918337871941287
30
0
40
50.075000000007755
210
0
220
0
230
1
100
AcDbArc
50
241.44173909757797
51
243.22381485454943
0
LINE
5
175
100
AcDbEntity
8
PERIMETER
100
AcDbLine
10
-23.738638925912362
20
-45.324798740880745
30
0
11
-23.476652855940308
21
-54.070366072423049
31
0
0
ARC
5
176
100
AcDbEntity
8
PERIMETER
100
AcDbCircle
10
-22.402134877779396
20
-54.038177338228849
30
0
40
1.0750000000000133
210
0
220
0
230
1
100
AcDbArc
50
181.71586448386634
51
314.94968946831045
0
LINE
5
177
100
AcDbEntity
8
PERIMETER
100
AcDbLine
10
-21.642662847875496
20
-54.79898430178379
30
0
11
-15.45040858939908
21
-48.617595149676347
31
0
0
ARC
5
178
100
AcDbEntity
8
PERIMETER
100
AcDbCircle
10
-1.1795259094113824
20
-0.61918337871941287
30
0
40
50.075000000003101
210
0
220
0
230
1
100
AcDbArc
50
253.44173909757666
51
255.22381485454918
0
LINE
5
179
100
AcDbEntity
8
PERIMETER
100
AcDbLine
10
-13.950848102188527
20
-49.03817711515088
30
0
11
-12.114939233150029
21
-56.560325678364208
31
0
0
LINE
5
17A
100
AcDbEntity
8
PERIMETER
100
AcDbLine
10
-12.114939233150029
20
-56.560325678364222
30
0
11
-8.4399094039200655
21
-55.578064972547139
31
0
0
LINE
5
17B
100
AcDbEntity
8
PERIMETER
100
AcDbLine
10
-8.4399094039200655
20
-55.578064972547139
30
0
11
-5.1591246153280013
21
-50.535798038967513
31
0
0
ARC
5
17C
100
AcDbEntity
8
PERIMETER
100
AcDbCircle
10
-1.1795259094113824
20
-0.61918337871941287
30
0
40
50.074999999998283
210
0
220
0
230
1
100
AcDbArc
50
265.44173909757654
51
267.223814854549
0
LINE
5
17D
100
AcDbEntity
8
PERIMETER
100
AcDbLine
10
-3.6048892150388916
20
-50.63541312302884
30
0
11
-1.3966677243745913
21
-55.220509099888993
31
0
0
LINE
5
17E
100
AcDbEntity
8
PERIMETER
100
AcDbLine
10
-1.3966677243745909
20
-55.220509099889
30
0
11
3.1918849528793913
21
-55.765667538470474
31
0
0
LINE
5
17F
100
AcDbEntity
8
PERIMETER
100
AcDbLine
10
3.1918849528793913
20
-55.765667538470467
30
0
11
5.3060869184238815
21
-50.272405341113483
31
0
0
ARC
5
180
100
AcDbEntity
8
PERIMETER
100
AcDbCircle
10
-1.1795259094113824
20
-0.61918337871941287
30
0
40
50.074999999993551
210
-0
220
0
230
1
100
AcDbArc
50
277.44173909757751
51
279.2238148545498
0
LINE
5
181
100
AcDbEntity
8
PERIMETER
100
AcDbLine
10
6.8470696867504834
20
-50.046699886582033
30
0
11
12.199536370058597
21
-56.968020935014508
31
0
0
ARC
5
182
100
AcDbEntity
8
PERIMETER
100
AcDbCircle
10
13.049919611902865
20
-56.310393881137884
30
0
40
1.0750000000000106
210
0
220
0
230
1
100
AcDbArc
50
217.71586448386665
51
350.94968946831199
0
LINE
5
183
100
AcDbEntity
8
PERIMETER
100
AcDbLine
10
14.111536503866562
20
-56.479493185386467
30
0
11
15.487846050175198
21
-47.838928580908878
31
0
0
ARC
5
184
100
AcDbEntity
8
PERIMETER
100
AcDbCircle
10
-1.1795259094113824
20
-0.61918337871941287
30
0
40
50.074999999989103
210
-0
220
0
230
1
100
AcDbArc
50
289.44173909757961
51
291.22381485455253
0
LINE
5
185
100
AcDbEntity
8
PERIMETER
100
AcDbLine
10
16.948227845107535
20
-47.297766999202523
30
0
11
23.622753851265156
21
-52.955000178462903
31
0
0
ARC
5
186
100
AcDbEntity
8
PERIMETER
100
AcDbCircle
10
24.317825826280377
20
-52.134939235880907
30
0
40
1.0750000000000146
210
0
220
0
230
1
100
AcDbArc
50
-130.28413551613414
51
2.9496894683109129
0
LINE
5
187
100
AcDbEntity
8
PERIMETER
100
AcDbLine
10
25.391401564315579
20
-52.079620751608559
30
0
11
24.941161048367377
21
-43.341722369891698
31
0
0
ARC
5
188
100
AcDbEntity
8
PERIMETER
100
AcDbCircle
10
-1.1795259094113824
20
-0.61918337871941287
30
0
40
50.074999999985124
210
-0
220
0
230
1
100
AcDbArc
50
301.44173909758274
51
303.22381485455543
0
LINE
5
189
100
AcDbEntity
8
PERIMETER
100
AcDbLine
10
26.257116177777149
20
-42.508756018912663
30
0
11
33.961992692386374
21
-46.654653092650364
31
0
0
ARC
5
18A
100
AcDbEntity
8
PERIMETER
100
AcDbCircle
10
34.471375419938987
20
-45.707998859642842
30
0
40
1.0750000000000024
210
0
220
0
230
1
100
AcDbArc
50
-118.28413551613396
51
14.949689468310504
0
LINE
5
18B
100
AcDbEntity
8
PERIMETER
100
AcDbLine
10
35.509989592705608
20
-45.430680270059803
30
0
11
33.252876685541217
21
-36.9773361994731
31
0
0
ARC
5
18C
100
AcDbEntity
8
PERIMETER
100
AcDbCircle
10
-1.1795259094113824
20
-0.61918337871941287
30
0
40
50.074999999981785
210
-0
220
0
230
1
100
AcDbArc
50
313.44173909758666
51
315.22381485455935
0
LINE
5
18D
100
AcDbEntity
8
PERIMETER
100
AcDbLine
10
34.366891595620331
20
-35.888969705774947
30
0
11
42.765378542892876
21
-38.342335077646418
31
0
0
ARC
5
18E
100
AcDbEntity
8
PERIMETER
100
AcDbCircle
10
43.066809553499333
20
-37.310460886746782
30
0
40
1.0749999999999991
210
0
220
0
230
1
100
AcDbArc
50
-106.28413551613431
51
26.94968946831122
0
LINE
5
18F
100
AcDbEntity
8
PERIMETER
100
AcDbLine
10
44.025069737823713
20
-36.823262344940048
30
0
11
40.059731104315624
21
-29.023924285013472
31
0
0
ARC
5
190
100
AcDbEntity
8
PERIMETER
100
AcDbCircle
10
-1.1795259094113824
20
-0.61918337871941287
30
0
40
50.074999999979291
210
-0
220
0
230
1
100
AcDbArc
50
325.44173909759138
51
327.22381485456407
0
LINE
5
191
100
AcDbEntity
8
PERIMETER
100
AcDbLine
10
40.923117997857119
20
-27.727724486932406
30
0
11
49.648161197785385
21
-28.381334317633975
31
0
0
ARC
5
192
100
AcDbEntity
8
PERIMETER
100
AcDbCircle
10
49.728466509855672
20
-27.309338022466246
30
0
40
1.075000000000021
210
0
220
0
230
1
100
AcDbArc
50
-94.284135516132707
51
38.949689468311227
0
LINE
5
193
100
AcDbEntity
8
PERIMETER
100
AcDbLine
10
50.564492137440318
20
-26.633552442550755
30
0
11
45.064232103678648
21
-19.829088891879373
31
0
0
ARC
5
194
100
AcDbEntity
8
PERIMETER
100
AcDbCircle
10
-1.1795259094113824
20
-0.61918337871941287
30
0
40
50.074999999977649
210
-0
220
0
230
1
100
AcDbArc
50
337.44173909759661
51
339.22381485456884
0
LINE
5
195
100
AcDbEntity
8
PERIMETER
100
AcDbLine
10
45.639256830444268
20
-18.381705940449123
30
0
11
50.174358188123954
21
-17.767257464070784
31
0
0
LINE
5
196
100
AcDbEntity
8
PERIMETER
100
AcDbLine
10
50.174358188123954
20
-17.767257464070784
30
0
11
48.400826449510888
21
-10.08119166141042
31
0
0
LINE
5
197
100
AcDbEntity
8
PERIMETER
100
AcDbLine
10
48.400826449510895
20
-10.08119166141042
30
0
11
48.04765897569807
21
-9.7946884484662835
31
0
0
ARC
5
198
100
AcDbEntity
8
PERIMETER
100
AcDbCircle
10
-1.1795259094113824
20
-0.61918337871941287
30
0
40
50.07499999997701
210
-0
220
0
230
1
100
AcDbArc
50
349.44173909760207
51
350.25599499031631
0
LINE
5
199
100
AcDbEntity
8
PERIMETER
100
AcDbLine
10
48.173080778276386
20
-9.0941959526389855
30
0
11
45.974865880982918
21
0.43234590795199979
31
0
0
LINE
5
19A
100
AcDbEntity
8
PERIMETER
100
AcDbLine
10
45.974865880982918
20
0.43234590795199979
30
0
11
48.8404539739482
21
1.7275670268517052
31
0
0
ARC
5
19B
100
AcDbEntity
8
PERIMETER
100
AcDbCircle
10
-1.1795259094113824
20
-0.61918337871941287
30
0
40
50.074999999977472
210
0
220
-0
230
1
100
AcDbArc
50
2.686134023401586
51
3.2238148545777614
0
LINE
5
19C
100
AcDbEntity
8
PERIMETER
100
AcDbLine
10
48.81622919425503
20
2.1968593432504804
30
0
11
56.259119638892578
21
6.7965296010568723
31
0
0
ARC
5
19D
100
AcDbEntity
8
PERIMETER
100
AcDbCircle
10
55.693984388284264
20
7.7109950998702033
30
0
40
1.0750000000000137
210
-0
220
0
230
1
100
AcDbArc
50
-58.284135516132558
51
74.949689468310638
0
LINE
5
19E
100
AcDbEntity
8
PERIMETER
100
AcDbLine
10
55.973126531146988
20
8.7491206530081822
30
0
11
47.523759365506145
21
11.021075571487415
31
0
0
ARC
5
19F
100
AcDbEntity
8
PERIMETER
100
AcDbCircle
10
-1.1795259094113824
20
-0.61918337871941287
30
0
40
50.074999999978729
210
0
220
-0
230
1
100
AcDbArc
50
13.441739097612794
51
15.223814854585276
0
LINE
5
1A0
100
AcDbEntity
8
PERIMETER
100
AcDbLine
10
47.138213788374628
20
12.530024030659405
30
0
11
53.462133998817379
21
18.576644394413901
31
0
0
ARC
5
1A1
100
AcDbEntity
8
PERIMETER
100
AcDbCircle
10
52.719220241292
20
19.353628402537318
30
0
40
1.075000000000004
210
-0
220
0
230
1
100
AcDbArc
50
-46.284135516133908
51
86.949689468311917
0
LINE
5
1A2
100
AcDbEntity
8
PERIMETER
100
AcDbLine
10
52.776424019562818
20
20.427105336500752
30
0
11
44.03932981020948
21
20.892690375238161
31
0
0
ARC
5
1A3
100
AcDbEntity
8
PERIMETER
100
AcDbCircle
10
-1.1795259094113824
20
-0.61918337871941287
30
0
40
50.074999999980996
210
0
220
-0
230
1
100
AcDbArc
50
25.441739097617589
51
27.223814854589694
0
LINE
5
1A4
100
AcDbEntity
8
PERIMETER
100
AcDbLine
10
43.348481303461448
20
22.288505257379221
30
0
11
48.277045620976736
21
29.517809402283909
31
0
0
ARC
5
1A5
100
AcDbEntity
8
PERIMETER
100
AcDbCircle
10
47.388822252633858
20
30.123353990179488
30
0
40
1.0750000000000024
210
-0
220
0
230
1
100
AcDbArc
50
-34.284135516133389
51
98.949689468311732
0
LINE
5
1A6
100
AcDbEntity
8
PERIMETER
100
AcDbLine
10
47.221587586708161
20
31.185266211840364
30
0
11
38.578619275820628
21
29.824133070518215
31
0
0
ARC
5
1A7
100
AcDbEntity
8
PERIMETER
100
AcDbCircle
10
-1.1795259094113824
20
-0.61918337871941287
30
0
40
50.074999999984101
210
0
220
-0
230
1
100
AcDbArc
50
37.441739097621792
51
39.223814854593897
0
LINE
5
1A8
100
AcDbEntity
8
PERIMETER
100
AcDbLine
10
37.612661234259946
20
31.045810567415941
30
0
11
40.930467748296834
21
39.141843212288272
31
0
0
ARC
5
1A9
100
AcDbEntity
8
PERIMETER
100
AcDbCircle
10
39.935754392501622
20
39.549483175739631
30
0
40
1.075000000000006
210
-0
220
0
230
1
100
AcDbArc
50
-22.284135516132604
51
110.94968946831025
0
LINE
5
1AA
100
AcDbEntity
8
PERIMETER
100
AcDbLine
10
39.551390239761361
20
40.553420025391191
30
0
11
31.380287016088779
21
37.425056753726707
31
0
0
ARC
5
1AB
100
AcDbEntity
8
PERIMETER
100
AcDbCircle
10
-1.1795259094113824
20
-0.61918337871941287
30
0
40
50.074999999987931
210
0
220
-0
230
1
100
AcDbArc
50
49.441739097625145
51
51.223814854597045
0
LINE
5
1AC
100
AcDbEntity
8
PERIMETER
100
AcDbLine
10
30.181436441312528
20
38.419203696507807
30
0
11
31.48997256117535
21
45.630963120469531
31
0
0
LINE
5
1AD
100
AcDbEntity
8
PERIMETER
100
AcDbLine
10
31.48997256117535
20
45.630963120469545
30
0
11
25.906694488157505
21
45.403516277526286
31
0
0
LINE
5
1AE
100
AcDbEntity
8
PERIMETER
100
AcDbLine
10
25.906694488157505
20
45.403516277526286
30
0
11
22.75893469219465
21
43.363264586628972
31
0
0
ARC
5
1AF
100
AcDbEntity
8
PERIMETER
100
AcDbCircle
10
-1.1795259094113824
20
-0.61918337871941287
30
0
40
50.074999999992251
210
0
220
-0
230
1
100
AcDbArc
50
61.441739097627547
51
63.223814854599624
0
LINE
5
1B0
100
AcDbEntity
8
PERIMETER
100
AcDbLine
10
21.379587107044074
20
44.086431983447497
30
0
11
21.285162691991367
21
47.238489188903358
31
0
0
LINE
5
1B1
100
AcDbEntity
8
PERIMETER
100
AcDbLine
10
21.285162691991367
20
47.238489188903358
30
0
11
17.125085087779098
21
51.405879014456303
31
0
0
LINE
5
1B2
100
AcDbEntity
8
PERIMETER
100
AcDbLine
10
17.125085087779098
20
51.405879014456303
30
0
11
13.091356770530801
21
47.379228392244592
31
0
0
ARC
5
1B3
100
AcDbEntity
8
PERIMETER
100
AcDbCircle
10
-1.1795259094113824
20
-0.61918337871941287
30
0
40
50.074999999996905
210
0
220
-0
230
1
100
AcDbArc
50
73.441739097628854
51
75.223814854600349
0
LINE
5
1B4
100
AcDbEntity
8
PERIMETER
100
AcDbLine
10
11.591796283320953
20
47.799810357717476
30
0
11
9.5172295464903911
21
56.299796093344497
31
0
0
ENDSEC
0
SECTION
2
OBJECTS
0
DICTIONARY
5
C
100
AcDbDictionary
3
ACAD_GROUP
350
D
3
ACAD_MLINESTYLE
350
17
0
DICTIONARY
5
D
100
AcDbDictionary
0
DICTIONARY
5
1A
330
C
100
AcDbDictionary
0
DICTIONARY
5
17
100
AcDbDictionary
0
ENDSEC
0
EOF
