0
SECTION
2
HEADER
9
$INSUNITS
70
4
9
$ACADVER
1
AC1014
9
$HANDSEED
5
FFFF
0
ENDSEC
0
SECTION
2
TABLES
0
TABLE
2
VPORT
5
8
100
AcDbSymbolTable
0
ENDTAB
0
TABLE
2
LTYPE
5
5
100
AcDbSymbolTable
70
2
0
LTYPE
5
14
100
AcDbSymbolTableRecord
100
AcDbLinetypeTableRecord
2
BYBLOCK
70
0
0
LTYPE
5
15
100
AcDbSymbolTableRecord
100
AcDbLinetypeTableRecord
2
BYLAYER
70
0
0
ENDTAB
0
TABLE
2
LAYER
5
2
100
AcDbSymbolTable
70
3
0
LAYER
5
50
100
AcDbSymbolTableRecord
100
AcDbLayerTableRecord
2
0
70
0
6
CONTINUOUS
0
LAYER
5
51
100
AcDbSymbolTableRecord
100
AcDbLayerTableRecord
2
CUTOUTS
70
0
62
1
6
CONTINUOUS
0
LAYER
5
52
100
AcDbSymbolTableRecord
100
AcDbLayerTableRecord
2
PERIMETER
70
0
62
5
6
CONTINUOUS
0
ENDTAB
0
TABLE
2
STYLE
5
3
100
AcDbSymbolTable
70
1
0
STYLE
5
11
100
AcDbSymbolTableRecord
100
AcDbTextStyleTableRecord
2
STANDARD
70
0
0
ENDTAB
0
TABLE
2
VIEW
5
6
100
AcDbSymbolTable
0
ENDTAB
0
TABLE
2
UCS
5
7
100
AcDbSymbolTable
0
ENDTAB
0
TABLE
2
APPID
5
9
100
AcDbSymbolTable
70
1
0
APPID
5
12
100
AcDbSymbolTableRecord
100
AcDbRegAppTableRecord
2
ACAD
70
0
0
ENDTAB
0
TABLE
2
DIMSTYLE
5
A
100
AcDbSymbolTable
0
ENDTAB
0
TABLE
2
BLOCK_RECORD
5
1
100
AcDbSymbolTable
70
2
0
BLOCK_RECORD
5
1F
100
AcDbSymbolTableRecord
100
AcDbBlockTableRecord
2
*MODEL_SPACE
0
BLOCK_RECORD
5
1B
100
AcDbSymbolTableRecord
100
AcDbBlockTableRecord
2
*PAPER_SPACE
0
ENDTAB
0
ENDSEC
0
SECTION
2
BLOCKS
0
BLOCK
5
20
100
AcDbEntity
100
AcDbBlockBegin
2
*MODEL_SPACE
0
ENDBLK
5
21
100
AcDbEntity
100
AcDbBlockEnd
0
BLOCK
5
1C
100
AcDbEntity
100
AcDbBlockBegin
2
*PAPER_SPACE
0
ENDBLK
5
1D
100
AcDbEntity
100
AcDbBlockEnd
0
ENDSEC
0
SECTION
2
ENTITIES
0
CIRCLE
5
100
100
AcDbEntity
8
CUTOUTS
100
AcDbCircle
10
10.078760107753695
20
-3.7665594320955438
30
0
40
2.4249999999999994
210
0
220
0
230
1
0
CIRCLE
5
101
100
AcDbEntity
8
CUTOUTS
100
AcDbCircle
10
110.05803980053734
20
-1.7309680899690654
30
0
40
11.92499999999999
210
0
220
0
230
1
0
CIRCLE
5
102
100
AcDbEntity
8
CUTOUTS
100
AcDbCircle
10
-124.39337107904025
20
-6.5044297872556562
30
0
40
2.4249999999999972
210
0
220
0
230
1
0
ARC
5
103
100
AcDbEntity
8
CUTOUTS
100
AcDbCircle
10
-72.404145638792713
20
-5.4459222893498858
30
0
40
4.9249999999999989
210
0
220
0
230
1
100
AcDbArc
50
91.166388488044078
51
271.16638848804388
0
LINE
5
104
100
AcDbEntity
8
CUTOUTS
100
AcDbLine
10
-7.3173609648836546
20
-9.0467674418372681
30
0
11
-72.303892765193027
21
-10.36990181421948
31
0
0
ARC
5
105
100
AcDbEntity
8
CUTOUTS
100
AcDbCircle
10
-7.4176138384834012
20
-4.1227879169676669
30
0
40
4.9250000000000078
210
-0
220
0
230
1
100
AcDbArc
50
-88.833611511955382
51
91.166388488044618
0
LINE
5
106
100
AcDbEntity
8
CUTOUTS
100
AcDbLine
10
-72.504398512392413
20
-0.52194276448029209
30
0
11
-7.5178667120831388
21
0.80119160790193411
31
0
0
ARC
5
107
100
AcDbEntity
8
CUTOUTS
100
AcDbCircle
10
27.085245991932236
20
-3.4203051328826959
30
0
40
4.4350104105931472
210
0
220
0
230
1
100
AcDbArc
50
91.166388488044433
51
271.16638848804439
0
LINE
5
108
100
AcDbEntity
8
CUTOUTS
100
AcDbLine
10
83.643801033484806
20
-6.7046950294949212
30
0
11
27.175524679872673
21
-7.8543965956936903
31
0
0
ARC
5
109
100
AcDbEntity
8
CUTOUTS
100
AcDbCircle
10
83.553522345544366
20
-2.2706035666839259
30
0
40
4.4350104105931472
210
-0
220
0
230
1
100
AcDbArc
50
-88.833611511955581
51
91.166388488044376
0
LINE
5
10A
100
AcDbEntity
8
CUTOUTS
100
AcDbLine
10
26.994967303991793
20
1.013786329928299
30
0
11
83.463243657603925
21
2.1634878961270698
31
0
0
ARC
5
10B
100
AcDbEntity
8
CUTOUTS
100
AcDbCircle
10
-90.023268192886846
20
-5.7340758913279855
30
0
40
2.4250000000000758
210
0
220
0
230
1
100
AcDbArc
50
-117.35381324765235
51
59.329379827042921
0
ARC
5
10C
100
AcDbEntity
8
CUTOUTS
100
AcDbCircle
10
-89.900519585029869
20
-5.8021507742220191
30
0
40
2.4249999999997494
210
0
220
-0
230
1
100
AcDbArc
50
62.646186752060139
51
239.3293798273308
0
ARC
5
10D
100
AcDbEntity
8
PERIMETER
100
AcDbCircle
10
110.05803980053734
20
-1.7309680899690654
30
0
40
22.075000000000017
210
0
220
0
230
1
100
AcDbArc
50
-144.10786371875824
51
146.44064069484699
0
LINE
5
10E
100
AcDbEntity
8
PERIMETER
100
AcDbLine
10
91.662642974960718
20
10.472105319199915
30
0
11
67.385854779601488
21
9.9778267045013216
31
0
0
LINE
5
10F
100
AcDbEntity
8
PERIMETER
100
AcDbLine
10
67.385854779601488
20
9.9778267045013198
30
0
11
67.296004798008411
21
14.390862000034662
31
0
0
ARC
5
110
100
AcDbEntity
8
PERIMETER
100
AcDbCircle
10
63.485621623194611
20
13.634013217702348
30
0
40
3.8848217485776626
210
0
220
-0
230
1
100
AcDbArc
50
11.234326114164363
51
171.09845086192445
0
LINE
5
111
100
AcDbEntity
8
PERIMETER
100
AcDbLine
10
59.647589901510443
20
14.235139262361985
30
0
11
59.667720874782475
21
13.246394534675655
31
0
0
ARC
5
112
100
AcDbEntity
8
PERIMETER
100
AcDbCircle
10
58.243015744361351
20
13.217387350012197
30
0
40
1.4250003948807668
210
0
220
0
230
1
100
AcDbArc
50
-178.83361151195552
51
1.1663884880444786
0
LINE
5
113
100
AcDbEntity
8
PERIMETER
100
AcDbLine
10
56.818310613940241
20
13.188380165348732
30
0
11
56.635107398002084
21
22.186515099330087
31
0
0
ARC
5
114
100
AcDbEntity
8
PERIMETER
100
AcDbCircle
10
58.059812528423215
20
22.215522283993543
30
0
40
1.425000394880767
210
0
220
-0
230
1
100
AcDbArc
50
1.1663884880444786
51
181.1663884880445
0
ARC
5
115
100
AcDbEntity
8
PERIMETER
100
AcDbCircle
10
63.308725107093309
20
22.322390837493344
30
0
40
3.8250000000000006
210
0
220
0
230
1
100
AcDbArc
50
-178.83361151195552
51
1.1663884880444786
0
ARC
5
116
100
AcDbEntity
8
PERIMETER
100
AcDbCircle
10
59.559502118613921
20
22.246056162163601
30
0
40
7.5750000000000046
210
0
220
-0
230
1
100
AcDbArc
50
1.1663884880441662
51
126.68237225257931
0
ARC
5
117
100
AcDbEntity
8
PERIMETER
100
AcDbCircle
10
-4.658680462021465
20
108.45669950763553
30
0
40
99.924999999999955
210
-0
220
0
230
1
100
AcDbArc
50
271.16638848804439
51
306.68237225257928
0
LINE
5
118
100
AcDbEntity
8
PERIMETER
100
AcDbLine
10
-2.6246158134016184
20
8.5524042746215301
30
0
11
-90.156495196302245
21
6.7702436471455236
31
0
0
ARC
5
119
100
AcDbEntity
8
PERIMETER
100
AcDbCircle
10
-89.900519585029869
20
-5.8021507742220191
30
0
40
12.575000000000001
210
0
220
0
230
1
100
AcDbArc
50
91.16638848804422
51
144.12543692008299
0
LINE
5
11A
100
AcDbEntity
8
PERIMETER
100
AcDbLine
10
-100.09006579281602
20
1.5669586074733088
30
0
11
-124.54756712320629
21
1.069000649472708
31
0
0
ARC
5
11B
100
AcDbEntity
8
PERIMETER
100
AcDbCircle
10
-124.39337107904015
20
-6.5044297872556545
30
0
40
7.575000000000002
210
0
220
0
230
1
100
AcDbArc
50
91.166388488044873
51
271.16638848804484
0
LINE
5
11C
100
AcDbEntity
8
PERIMETER
100
AcDbLine
10
-124.23917503487401
20
-14.077860223984015
30
0
11
-99.849356329861649
21
-13.581280293177203
31
0
0
ARC
5
11D
100
AcDbEntity
8
PERIMETER
100
AcDbCircle
10
-90.023268192886846
20
-5.7340758913279855
30
0
40
12.57499999999991
210
0
220
0
230
1
100
AcDbArc
50
218.61118571806719
51
241.30755169972366
0
ARC
5
11E
100
AcDbEntity
8
PERIMETER
100
AcDbCircle
10
-89.900519585029869
20
-5.8021507742220191
30
0
40
12.574999999998379
210
0
220
0
230
1
100
AcDbArc
50
240.66801488094757
51
271.16638848804422
0
LINE
5
11F
100
AcDbEntity
8
PERIMETER
100
AcDbLine
10
-89.644543973757521
20
-18.37454519558916
30
0
11
92.174594197505527
21
-14.672683523535179
31
0
0
ENDSEC
0
SECTION
2
OBJECTS
0
DICTIONARY
5
C
100
AcDbDictionary
3
ACAD_GROUP
350
D
3
ACAD_MLINESTYLE
350
17
0
DICTIONARY
5
D
100
AcDbDictionary
0
DICTIONARY
5
1A
330
C
100
AcDbDictionary
0
DICTIONARY
5
17
100
AcDbDictionary
0
ENDSEC
0
EOF
