0
SECTION
2
HEADER
9
$INSUNITS
70
4
9
$ACADVER
1
AC1014
9
$HANDSEED
5
FFFF
0
ENDSEC
0
SECTION
2
TABLES
0
TABLE
2
VPORT
5
8
100
AcDbSymbolTable
0
ENDTAB
0
TABLE
2
LTYPE
5
5
100
AcDbSymbolTable
70
2
0
LTYPE
5
14
100
AcDbSymbolTableRecord
100
AcDbLinetypeTableRecord
2
BYBLOCK
70
0
0
LTYPE
5
15
100
AcDbSymbolTableRecord
100
AcDbLinetypeTableRecord
2
BYLAYER
70
0
0
ENDTAB
0
TABLE
2
LAYER
5
2
100
AcDbSymbolTable
70
3
0
LAYER
5
50
100
AcDbSymbolTableRecord
100
AcDbLayerTableRecord
2
0
70
0
6
CONTINUOUS
0
LAYER
5
51
100
AcDbSymbolTableRecord
100
AcDbLayerTableRecord
2
CUTOUTS
70
0
62
1
6
CONTINUOUS
0
LAYER
5
52
100
AcDbSymbolTableRecord
100
AcDbLayerTableRecord
2
PERIMETER
70
0
62
5
6
CONTINUOUS
0
ENDTAB
0
TABLE
2
STYLE
5
3
100
AcDbSymbolTable
70
1
0
STYLE
5
11
100
AcDbSymbolTableRecord
100
AcDbTextStyleTableRecord
2
STANDARD
70
0
0
ENDTAB
0
TABLE
2
VIEW
5
6
100
AcDbSymbolTable
0
ENDTAB
0
TABLE
2
UCS
5
7
100
AcDbSymbolTable
0
ENDTAB
0
TABLE
2
APPID
5
9
100
AcDbSymbolTable
70
1
0
APPID
5
12
100
AcDbSymbolTableRecord
100
AcDbRegAppTableRecord
2
ACAD
70
0
0
ENDTAB
0
TABLE
2
DIMSTYLE
5
A
100
AcDbSymbolTable
0
ENDTAB
0
TABLE
2
BLOCK_RECORD
5
1
100
AcDbSymbolTable
70
2
0
BLOCK_RECORD
5
1F
100
AcDbSymbolTableRecord
100
AcDbBlockTableRecord
2
*MODEL_SPACE
0
BLOCK_RECORD
5
1B
100
AcDbSymbolTableRecord
100
AcDbBlockTableRecord
2
*PAPER_SPACE
0
ENDTAB
0
ENDSEC
0
SECTION
2
BLOCKS
0
BLOCK
5
20
100
AcDbEntity
100
AcDbBlockBegin
2
*MODEL_SPACE
0
ENDBLK
5
21
100
AcDbEntity
100
AcDbBlockEnd
0
BLOCK
5
1C
100
AcDbEntity
100
AcDbBlockBegin
2
*PAPER_SPACE
0
ENDBLK
5
1D
100
AcDbEntity
100
AcDbBlockEnd
0
ENDSEC
0
SECTION
2
ENTITIES
0
CIRCLE
5
100
100
AcDbEntity
8
CUTOUTS
100
AcDbCircle
10
-1.5827391266142499
20
17.611204983361333
30
0
40
2.4249999999999998
210
0
220
0
230
1
0
ARC
5
101
100
AcDbEntity
8
CUTOUTS
100
AcDbCircle
10
15.12787779675179
20
27.379321088653867
30
0
40
47.393270666203939
210
0
220
-0
230
1
100
AcDbArc
50
80.19013833059681
51
129.02540711511082
0
ARC
5
102
100
AcDbEntity
8
CUTOUTS
100
AcDbCircle
10
24.04181785856613
20
78.932624746873032
30
0
40
4.9249999999999829
210
0
220
0
230
1
100
AcDbArc
50
-99.809861669403233
51
80.190138330596795
0
ARC
5
103
100
AcDbEntity
8
CUTOUTS
100
AcDbCircle
10
15.12787779675179
20
27.379321088653867
30
0
40
57.243270666203898
210
0
220
-0
230
1
100
AcDbArc
50
80.19013833059681
51
129.02540711511074
0
ARC
5
104
100
AcDbEntity
8
CUTOUTS
100
AcDbCircle
10
-17.815103228415872
20
68.023649680446553
30
0
40
4.9249999999999874
210
0
220
0
230
1
100
AcDbArc
50
129.02540711511043
51
309.0254071151104
0
LINE
5
105
100
AcDbEntity
8
CUTOUTS
100
AcDbLine
10
-66.375628839436985
20
29.580035459970393
30
0
11
-16.444152101708251
21
32.196833272117587
31
0
0
ARC
5
106
100
AcDbEntity
8
CUTOUTS
100
AcDbCircle
10
-16.186397517211795
20
27.278582813451308
30
0
40
4.9250000000000007
210
-0
220
0
230
1
100
AcDbArc
50
-87.000000000000284
51
92.999999999999716
0
LINE
5
107
100
AcDbEntity
8
CUTOUTS
100
AcDbLine
10
-15.92864293271532
20
22.360332354785029
30
0
11
-65.860119670444021
21
19.743534542637839
31
0
0
ARC
5
108
100
AcDbEntity
8
CUTOUTS
100
AcDbCircle
10
-66.117874254940503
20
24.661785001304114
30
0
40
4.9250000000000007
210
0
220
0
230
1
100
AcDbArc
50
92.999999999999815
51
272.99999914622606
0
LINE
5
109
100
AcDbEntity
8
PERIMETER
100
AcDbLine
10
75.125000000000014
20
-127.66883116403191
30
0
11
75.124999999999986
21
-20.16406177502466
31
0
0
ARC
5
10A
100
AcDbEntity
8
PERIMETER
100
AcDbCircle
10
65.000000000000014
20
-127.66883116403186
30
0
40
10.124999999999993
210
-0
220
0
230
1
100
AcDbArc
50
270
51
360
0
LINE
5
10B
100
AcDbEntity
8
PERIMETER
100
AcDbLine
10
55.000000000000036
20
-137.79383116403184
30
0
11
65.000000000000014
21
-137.79383116403184
31
0
0
ARC
5
10C
100
AcDbEntity
8
PERIMETER
100
AcDbCircle
10
55.000000000000057
20
-127.66883116403184
30
0
40
10.125000000000011
210
0
220
0
230
1
100
AcDbArc
50
180
51
269.99999999999989
0
LINE
5
10D
100
AcDbEntity
8
PERIMETER
100
AcDbLine
10
44.875000000000043
20
-32.718803386245526
30
0
11
44.875000000000043
21
-127.66883116403186
31
0
0
ARC
5
10E
100
AcDbEntity
8
PERIMETER
100
AcDbCircle
10
-0.049999999999972289
20
-32.718803386245526
30
0
40
44.925000000000011
210
-0
220
0
230
1
100
AcDbArc
50
0
51
89.936284910181257
0
ARC
5
10F
100
AcDbEntity
8
PERIMETER
100
AcDbCircle
10
1.7763568394002505e-14
20
87.331168835968143
30
0
40
75.125000000000043
210
0
220
0
230
1
100
AcDbArc
50
268.58802855100424
51
269.99996819759764
0
LINE
5
110
100
AcDbEntity
8
PERIMETER
100
AcDbLine
10
-1.8617961810816652
20
12.206168835968125
30
0
11
-1.8511593656521796
21
12.22897956026884
31
0
0
LINE
5
111
100
AcDbEntity
8
PERIMETER
100
AcDbLine
10
-70
20
12.206168835968107
30
0
11
-1.8617961810816652
21
12.206168835968125
31
0
0
ARC
5
112
100
AcDbEntity
8
PERIMETER
100
AcDbCircle
10
-69.999999999999972
20
17.331168835968143
30
0
40
5.1250000000000284
210
0
220
0
230
1
100
AcDbArc
50
180
51
269.99999999999972
0
LINE
5
113
100
AcDbEntity
8
PERIMETER
100
AcDbLine
10
-75.124999999999957
20
37.333495056471477
30
0
11
-75.125
21
17.331168835968125
31
0
0
LINE
5
114
100
AcDbEntity
8
PERIMETER
100
AcDbLine
10
-70.538026646465852
20
111.20698377569005
30
0
11
-75.124999999999957
21
37.333495056471477
31
0
0
ARC
5
115
100
AcDbEntity
8
PERIMETER
100
AcDbCircle
10
-55.442099456884364
20
110.26964323626204
30
0
40
15.125000000000068
210
0
220
0
230
1
100
AcDbArc
50
157.48024152550477
51
176.44693594649166
0
SPLINE
5
116
100
AcDbEntity
8
PERIMETER
100
AcDbSpline
70
0
71
3
72
38
73
34
74
0
42
0.000000001
43
0.0000000001
44
0.0000000001
40
-1.0000118125301218
40
-1.0000118125301218
40
-1.0000118125301218
40
-1.0000118125301218
40
-1
40
-1
40
-1
40
-0.85197552451565051
40
-0.85197552451565051
40
-0.85197552451565051
40
-0.7307713999349269
40
-0.7307713999349269
40
-0.7307713999349269
40
-0.59663677777577395
40
-0.59663677777577395
40
-0.59663677777577395
40
-0.50096569928643353
40
-0.50096569928643353
40
-0.50096569928643353
40
-0.40774115010552903
40
-0.40774115010552903
40
-0.40774115010552903
40
-0.26130003341020364
40
-0.26130003341020364
40
-0.26130003341020364
40
-0.15877089471506151
40
-0.15877089471506151
40
-0.15877089471506151
40
-0.0230520128734098
40
-0.0230520128734098
40
-0.0230520128734098
40
0
40
0
40
0
40
4.3671766007943622e-05
40
4.3671766007943622e-05
40
4.3671766007943622e-05
40
4.3671766007943622e-05
10
75.124999999999986
20
-20.164061775024727
30
0
10
75.124798618181629
20
-20.162484784932285
30
0
10
75.124597236363272
20
-20.160907794839776
30
0
10
75.1243958545449
20
-20.159330804747249
30
0
10
72.600784357118002
20
-0.39731673084643759
30
0
10
70.144173500270014
20
17.314013203114506
30
0
10
67.669842029668416
20
32.926490503995687
30
0
10
65.643831271410363
20
45.710164538968328
30
0
10
63.61629641410515
20
57.073505937942826
30
0
10
61.26358390276544
20
67.0919810708466
30
0
10
58.659875449366382
20
78.179263630013224
30
0
10
55.668009797703419
20
87.607460753673649
30
0
10
51.216003405901759
20
95.872264663353974
30
0
10
48.040624476219222
20
101.76710889383051
30
0
10
44.085295552052401
20
107.09322975536509
30
0
10
39.077272180149194
20
111.97385340376995
30
0
10
34.197315473221011
20
116.72966829086668
30
0
10
28.304661201167747
20
121.07041901313677
30
0
10
21.612271612116487
20
124.8432374963362
30
0
10
11.099579264534913
20
130.76974244189896
30
0
10
-1.3390162958615903
20
135.26131350520325
30
0
10
-13.515391209910241
20
136.96967663853385
30
0
10
-22.040546306644053
20
138.16576831409338
30
0
10
-30.400669357073724
20
137.97648742016545
30
0
10
-38.14126219161043
20
136.16062767761724
30
0
10
-48.387565024783434
20
133.75695534625501
30
0
10
-57.558955503552696
20
128.51929966830096
30
0
10
-65.476965098034583
20
120.43535661548279
30
0
10
-66.821848408499349
20
119.06228931053036
30
0
10
-68.131696732341538
20
117.60755721917123
30
0
10
-69.406542175663049
20
116.07127140465649
30
0
10
-69.408954960768227
20
116.06836381491689
30
0
10
-69.411367745873463
20
116.06545622517729
30
0
10
-69.413780530978784
20
116.06254863543759
30
0
0
ENDSEC
0
SECTION
2
OBJECTS
0
DICTIONARY
5
C
100
AcDbDictionary
3
ACAD_GROUP
350
D
3
ACAD_MLINESTYLE
350
17
0
DICTIONARY
5
D
100
AcDbDictionary
0
DICTIONARY
5
1A
330
C
100
AcDbDictionary
0
DICTIONARY
5
17
100
AcDbDictionary
0
ENDSEC
0
EOF
